<svg id="SvgjsSvg1017" width="288" height="288" xmlns="http://www.w3.org/2000/svg" version="1.1" xmlns:xlink="http://www.w3.org/1999/xlink" xmlns:svgjs="http://svgjs.com/svgjs"><defs id="SvgjsDefs1018"></defs><g id="SvgjsG1019"><svg xmlns="http://www.w3.org/2000/svg" viewBox="0 0 47.5 47.5" width="288" height="288"><defs><clipPath id="a"><path d="M0 38h38V0H0v38Z" fill="#000000" class="color000 svgShape"></path></clipPath></defs><g clip-path="url(#a)" transform="matrix(1.25 0 0 -1.25 0 47.5)" fill="#000000" class="color000 svgShape"><path fill="#ffc022" d="M1 24V10a4 4 0 0 1 4-4h28a4 4 0 0 1 4 4v14H1Z" class="colorffcc4d svgShape"></path><path fill="#dd2e44" d="M37 14H1v10h36V14Z" class="colordd2e44 svgShape"></path><path fill="#000000" d="M33 32H5a4 4 0 0 1-4-4v-4h36v4a4 4 0 0 1-4 4" class="color292f33 svgShape"></path></g></svg></g></svg>